<svg width="187" height="40" viewBox="0 0 187 40" xmlns="http://www.w3.org/2000/svg"><title>type</title><g transform="translate(0 .5)" fill="#346275" fill-rule="evenodd"><path d="M6.951 37.778v-7.84l2.667-2.987 8.48 10.827h7.253l-11.627-14.88 10.507-12h-7.36L6.951 22.31V.604H.604v37.174h6.347zm19.253-7.947c0 5.813 2.827 8.693 8.48 8.693 1.28 0 2.294-.106 3.04-.32v-5.706c-.533.16-1.173.213-1.92.213-2.346 0-3.2-1.12-3.2-3.733V.604h-6.4v29.227zm13.334 1.653c0 4.534 2.08 6.827 6.186 6.827 1.494 0 2.56-.16 3.2-.427v-5.386c-.266.053-.64.106-1.12.106-1.44 0-1.866-.746-1.866-2.826v-18.88h-6.4v20.586zm3.2-23.733a3.767 3.767 0 0 0 3.786-3.787A3.767 3.767 0 0 0 42.738.178c-2.134 0-3.84 1.653-3.84 3.786 0 2.134 1.706 3.787 3.84 3.787zm14.986 30.027h-6.346V.604h6.346v21.707l9.92-11.413h7.36l-10.506 12 11.626 14.88h-7.253l-8.48-10.827-2.667 2.987v7.84zM74.791 24.55v-.213c0-4.267 1.333-7.68 3.947-10.294 2.666-2.613 6.026-3.893 10.133-3.893 3.893 0 7.093 1.28 9.547 3.893 2.506 2.614 3.733 5.814 3.733 9.654 0 .8-.053 1.546-.107 2.24H81.138c.213 4.266 3.36 7.04 8.106 7.04 2.774 0 5.174-1.014 7.254-3.094l3.84 3.734c-3.04 3.2-6.774 4.8-11.307 4.8-4.213 0-7.68-1.28-10.293-3.787-2.614-2.507-3.947-5.867-3.947-10.08zm6.507-3.093h14.346c0-1.6-.693-2.987-2.026-4.107-1.334-1.173-2.88-1.76-4.747-1.76-1.973 0-3.733.587-5.173 1.707s-2.24 2.506-2.4 4.16zm30.186 16.32V23.644c0-4.426 2.827-7.2 7.254-7.2.96 0 1.866.107 2.666.267v-6.187c-.533-.106-1.173-.16-1.92-.16-3.786 0-6.72 1.707-8 4.534v-4h-6.346v26.88h6.346z"/><path d="M115.04 34.524c0 2.08 1.76 3.68 3.733 3.68 1.974 0 3.68-1.6 3.68-3.68 0-1.973-1.706-3.626-3.68-3.626-1.973 0-3.733 1.653-3.733 3.626zm11.147 3.254V.604h2.666v15.894c.587-1.76 1.867-3.2 3.787-4.427 1.973-1.227 4.267-1.867 6.88-1.867 3.787 0 6.987 1.334 9.6 4.054 2.613 2.72 3.947 6.08 3.947 10.08s-1.334 7.36-3.947 10.08c-2.613 2.72-5.813 4.053-9.6 4.053-2.613 0-4.907-.587-6.88-1.813-1.92-1.227-3.2-2.72-3.787-4.48v5.6h-2.666zm13.333-1.814c3.093 0 5.653-1.12 7.733-3.306 2.08-2.24 3.147-5.014 3.147-8.32 0-3.254-1.067-6.027-3.147-8.267-2.08-2.24-4.64-3.36-7.733-3.36-3.147 0-5.76 1.12-7.84 3.307-2.08 2.186-3.147 4.96-3.147 8.32 0 3.36 1.067 6.186 3.147 8.373 2.08 2.187 4.693 3.253 7.84 3.253zm29.92-25.76c2.613 0 4.853.64 6.827 1.867 1.973 1.227 3.253 2.667 3.84 4.427v-5.6h2.666v21.866c0 2.294.587 3.254 2.24 3.254.587 0 1.12-.054 1.494-.16v2.08c-.534.266-1.28.373-2.24.373-2.72 0-4.054-1.707-4.054-5.173v-.907c-1.76 3.787-5.653 6.24-10.773 6.24-3.787 0-7.04-1.333-9.653-4.053-2.614-2.72-3.894-6.08-3.894-10.08s1.28-7.36 3.894-10.08c2.613-2.72 5.866-4.054 9.653-4.054zm0 2.507c-3.093 0-5.707 1.12-7.787 3.36-2.08 2.187-3.093 4.96-3.093 8.267 0 3.306 1.013 6.08 3.093 8.32 2.08 2.186 4.64 3.306 7.787 3.306 3.147 0 5.707-1.066 7.787-3.253 2.08-2.187 3.146-5.013 3.146-8.373 0-3.36-1.066-6.134-3.146-8.32-2.08-2.187-4.64-3.307-7.787-3.307z" opacity=".75"/></g></svg>