<svg width="18" height="18" viewBox="0 0 18 18" fill="none" xmlns="http://www.w3.org/2000/svg">
<mask id="mask0_4479_30017" style="mask-type:alpha" maskUnits="userSpaceOnUse" x="0" y="0" width="18" height="18">
<rect width="18" height="18" rx="4.5" fill="#D9D9D9"/>
</mask>
<g mask="url(#mask0_4479_30017)">
<path d="M-6.75 17.9999H24.0877V0.0112305H-6.75V17.9999Z" fill="#2E2E87"/>
<path d="M0.223633 0L18.2123 17.9887V0H0.223633Z" fill="#F1CB18"/>
<path d="M14.5895 17.264H13.3442L14.3518 17.9999H15.5971L16.5933 17.264H15.348L14.9631 16.0867L14.5895 17.264Z" fill="white"/>
<path d="M-0.772641 2.70563L0.234905 3.43017L-0.149999 2.2528L0.857547 1.51695H-0.387736L-0.772641 0.3396L-1.15755 1.51695H-2.40283L-1.39528 2.2528L-1.78019 3.43017L-0.772641 2.70563Z" fill="white"/>
<path d="M1.48029 4.95848L2.48783 5.69433L2.10292 4.50565L3.11047 3.78111H1.86519L1.48029 2.60376L1.09538 3.78111H-0.149902L0.857644 4.50565L0.472739 5.69433L1.48029 4.95848Z" fill="white"/>
<path d="M3.72174 7.19991L4.72929 7.93576L4.34439 6.75841L5.35193 6.03389H4.10665L3.72174 4.84521L3.33684 6.03389H2.09155L3.0991 6.75841L2.71419 7.93576L3.72174 7.19991Z" fill="white"/>
<path d="M5.97442 9.45287L6.98197 10.1774L6.59706 9.00004L7.60461 8.27549H6.35933L5.97442 7.09814L5.58952 8.27549H4.34424L5.35178 9.00004L4.96688 10.1774L5.97442 9.45287Z" fill="white"/>
<path d="M8.22736 11.6943L9.2349 12.4302L8.85 11.2528L9.85754 10.5169H8.61226L8.22736 9.3396L7.84245 10.5169H6.59717L7.60472 11.2528L7.21981 12.4302L8.22736 11.6943Z" fill="white"/>
<path d="M10.4688 13.947L11.4764 14.6829L11.0915 13.4942L12.099 12.7697H10.8537L10.4688 11.5923L10.0839 12.7697H8.83862L9.84617 13.4942L9.46126 14.6715L10.4688 13.947Z" fill="white"/>
<path d="M12.7217 16.1999L13.7293 16.9245L13.3444 15.7471L14.3519 15.0226H13.1066L12.7217 13.8452L12.3368 15.0226H11.0916L12.0991 15.7471L11.7142 16.9245L12.7217 16.1999Z" fill="white"/>
</g>
</svg>
