<?xml version="1.0" encoding="UTF-8"?>
<svg width="49px" height="40px" viewBox="0 0 49 40" version="1.1" xmlns="http://www.w3.org/2000/svg" xmlns:xlink="http://www.w3.org/1999/xlink">
    <!-- Generator: Sketch 55 (78076) - https://sketchapp.com -->
    <title>xbon</title>
    <desc>Created with Sketch.</desc>
    <g id="xbon" stroke="none" stroke-width="1" fill="none" fill-rule="evenodd">
        <g fill="#346275" id="Shape">
            <path d="M35.3088235,0.101449275 C31.5859765,1.06550725 27.1021882,4.16521739 24.5,7.16985507 C21.8978118,4.16521739 17.4140235,1.06550725 13.6911765,0.101449275 L13.6911765,4.61275362 C15.1807765,5.17275362 16.9159529,6.20753623 18.6061647,7.56463768 C19.7671765,8.49623188 20.8059765,9.5026087 21.5363647,10.3889855 C21.8649529,10.7878261 22.1128353,11.1408696 22.2627176,11.4133333 C22.3174824,11.5118841 22.3509176,11.5866667 22.3647529,11.6272464 C22.3439913,11.5502232 22.335049,11.470463 22.3382353,11.3907246 C22.3382353,11.2643478 22.3526471,11.1907246 22.3647529,11.1542029 C22.3509176,11.1947826 22.3174824,11.2689855 22.2627176,11.3681159 C22.1128353,11.6405797 21.8649529,11.9942029 21.5363647,12.3924638 C20.8059765,13.2794203 19.7671765,14.2852174 18.6061647,15.2168116 C16.9159529,16.5733333 15.1807765,17.6086957 13.6911765,18.1686957 L13.6911765,22.68 C17.4140235,21.715942 21.8978118,18.6162319 24.5,15.6115942 C27.1021882,18.6162319 31.5859765,21.715942 35.3088235,22.68 L35.3088235,18.1686957 C33.8192235,17.6086957 32.0840471,16.573913 30.3938353,15.2168116 C29.2328235,14.2852174 28.1940235,13.2788406 27.4636353,12.3924638 C27.1350471,11.9936232 26.8871647,11.6405797 26.7372824,11.3681159 C26.6978094,11.2995785 26.6636948,11.2280586 26.6352471,11.1542029 C26.6473529,11.1907246 26.6617647,11.2643478 26.6617647,11.3907246 C26.6617647,11.5171014 26.6473529,11.5907246 26.6352471,11.6272464 C26.6490824,11.5866667 26.6825176,11.5124638 26.7372824,11.4133333 C26.8871647,11.1408696 27.1350471,10.7872464 27.4636353,10.3889855 C28.1940235,9.50202899 29.2328235,8.49623188 30.3938353,7.56463768 C32.0840471,6.20811594 33.8192235,5.17275362 35.3088235,4.61275362 L35.3088235,0.101449275 Z M39.6323529,0 C44.9664353,1.0173913 49,5.73043478 49,11.3907246 C49,17.0510145 44.9664353,21.764058 39.6323529,22.7814493 L39.6323529,18.3055072 C42.5556353,17.382029 44.6764706,14.635942 44.6764706,11.3907246 C44.6764706,8.14608696 42.5556353,5.39942029 39.6323529,4.47594203 L39.6323529,0 Z M9.36764706,0 C4.03356471,1.0173913 0,5.73043478 0,11.3907246 C0,17.0510145 4.03356471,21.764058 9.36764706,22.7814493 L9.36764706,18.3055072 C6.44436471,17.382029 4.32352941,14.635942 4.32352941,11.3907246 C4.32352941,8.14608696 6.44436471,5.39942029 9.36764706,4.47594203 L9.36764706,0 Z M12.6667882,39.3791304 L9.38782353,39.3791304 C8.91511765,39.3791304 8.57672941,39.2724638 8.37438824,39.0585507 C8.17204706,38.8452174 8.07058824,38.5055072 8.07058824,38.0394203 L8.07058824,29.9292754 C8.07058824,29.4533333 8.17435294,29.1113043 8.38188235,28.9026087 C8.58941176,28.693913 8.92434118,28.5895652 9.38782353,28.5895652 L12.8639412,28.5895652 C13.377,28.5895652 13.8208824,28.6214493 14.1961647,28.6852174 C14.5720235,28.7489855 14.9086824,28.8718841 15.2061412,29.0533333 C15.4597882,29.2057971 15.6846118,29.3982609 15.8794588,29.6313043 C16.2711167,30.0968572 16.4838273,30.6881837 16.4789882,31.297971 C16.4789882,32.3773913 15.9428706,33.1675362 14.8694824,33.6678261 C16.2795294,34.1194203 16.9845529,34.9976812 16.9845529,36.3026087 C16.9845529,36.906087 16.8306353,37.4492754 16.5233765,37.9327536 C16.2256166,38.4076991 15.7919493,38.7809543 15.2793529,39.0034783 C14.918066,39.1499584 14.5391223,39.2478094 14.1523529,39.2944928 C13.7274941,39.3507246 13.2323059,39.3791304 12.6667882,39.3791304 L12.6667882,39.3791304 Z M12.5053765,34.5878261 L10.2444588,34.5878261 L10.2444588,37.737971 L12.5791647,37.737971 C14.0474353,37.737971 14.7812824,37.2052174 14.7812824,36.1408696 C14.7812824,35.595942 14.5910471,35.2011594 14.2105765,34.955942 C13.8301059,34.7107246 13.2617059,34.5878261 12.5053765,34.5878261 Z M10.2444588,30.2307246 L10.2444588,33.0202899 L12.2350118,33.0202899 C12.7768941,33.0202899 13.1948353,32.9686957 13.4899882,32.8655072 C13.7826795,32.7646253 14.0252028,32.5537696 14.1667647,32.2771014 C14.2889765,32.0707246 14.3500824,31.84 14.3500824,31.5849275 C14.3500824,31.04 14.1569647,30.6788406 13.7718824,30.4997101 C13.3862235,30.32 12.7982235,30.2307246 12.0078824,30.2307246 L10.2438824,30.2307246 L10.2444588,30.2307246 Z M23.5857176,28.4057971 C24.6983059,28.4057971 25.6529412,28.6324638 26.4507765,29.0863768 C27.238093,29.5292177 27.870556,30.2053149 28.2620471,31.0226087 C28.6719176,31.8585507 28.8771412,32.8411594 28.8771412,33.9698551 C28.8771412,34.8034783 28.7647294,35.5617391 28.5404824,36.244058 C28.3156588,36.9257971 27.979,37.5171014 27.5305059,38.017971 C27.0741749,38.5234864 26.5079955,38.9162861 25.8760353,39.1657971 C25.2228941,39.4307246 24.4734824,39.5628986 23.6295294,39.5628986 C22.7901882,39.5628986 22.0390471,39.4266667 21.3755294,39.1547826 C20.7120118,38.8823188 20.1580235,38.4985507 19.7141412,38.0028986 C19.2702588,37.5072464 18.9347529,36.9113043 18.7082,36.2144928 C18.4810706,35.5176812 18.3680824,34.7646377 18.3680824,33.9547826 C18.3680824,33.1257971 18.4862588,32.3652174 18.7226118,31.6736232 C18.9589647,30.9814493 19.3019647,30.3924638 19.7510353,29.9072464 C20.2071549,29.4165972 20.7673213,29.0355724 21.3899412,28.7924638 C22.0344353,28.5344928 22.7659765,28.4057971 23.5862941,28.4057971 L23.5857176,28.4057971 Z M26.6738706,33.9547826 C26.6738706,33.1652174 26.5470471,32.4805797 26.2934,31.9014493 C26.0397529,31.3228986 25.6777294,30.8846377 25.2067529,30.5878261 C24.7357765,30.2910145 24.1956235,30.1426087 23.5857176,30.1426087 C23.1717023,30.1384151 22.7614916,30.2223803 22.3820471,30.3889855 C22.0149369,30.5525231 21.6896611,30.79795 21.4308706,31.1066667 C21.1645412,31.4208696 20.9547059,31.822029 20.8007882,32.3101449 C20.6474471,32.7982609 20.5702,33.3466667 20.5702,33.9547826 C20.5702,34.5681159 20.6474471,35.1228986 20.8007882,35.6185507 C20.9547059,36.1136232 21.1720353,36.5246377 21.4522,36.8510145 C21.7159035,37.1645014 22.0460247,37.4146721 22.4183647,37.5831884 C22.7815412,37.7455072 23.1810353,37.826087 23.6151176,37.826087 C24.1714118,37.826087 24.6821647,37.6863768 25.1485294,37.4063768 C25.6143176,37.1269565 25.9849882,36.6950725 26.2611176,36.1113043 C26.5360941,35.5275362 26.6738706,34.8086957 26.6738706,33.9547826 L26.6738706,33.9547826 Z M33.5684588,29.715942 L37.7467176,36.0747826 L37.7467176,29.6573913 C37.7467176,29.24 37.8360706,28.9269565 38.0142,28.7182609 C38.1923294,28.5095652 38.4327176,28.4057971 38.7347882,28.4057971 C39.0472353,28.4057971 39.2939647,28.5101449 39.4744,28.7188406 C39.6548353,28.9275362 39.7453412,29.24 39.7453412,29.6568116 L39.7453412,38.1426087 C39.7453412,39.0892754 39.3544941,39.5628986 38.5739529,39.5628986 C38.3947779,39.565512 38.2165081,39.5368756 38.0470588,39.4782609 C37.8847553,39.4181952 37.7355772,39.3270435 37.6077882,39.2098551 C37.4655869,39.0807998 37.3379903,38.9363497 37.2273176,38.7791304 C37.1083834,38.6122328 36.9911615,38.444108 36.8756706,38.2747826 L32.8000235,31.9901449 L32.8000235,38.3118841 C32.8000235,38.7234783 32.7043294,39.0353623 32.5140941,39.2463768 C32.3238588,39.4573913 32.0800118,39.5628986 31.7819765,39.5628986 C31.4752941,39.5628986 31.2285647,39.4562319 31.0435176,39.2428986 C30.8578941,39.0295652 30.7650824,38.7188406 30.7650824,38.3118841 L30.7650824,29.9878261 C30.7650824,29.6347826 30.8042824,29.3576812 30.8821059,29.1565217 C30.9749176,28.9362319 31.1288353,28.7553623 31.3432824,28.6156522 C31.5494084,28.4783611 31.7912681,28.4053551 32.0385059,28.4057971 C32.2339294,28.4057971 32.4011059,28.4376812 32.5400353,28.5014493 C32.6789647,28.5652174 32.8011765,28.6510145 32.9060941,28.7588406 C33.0110118,28.8672464 33.1182353,29.0069565 33.2277647,29.1785507 C33.3372941,29.3501449 33.4508588,29.5292754 33.5678824,29.715942 L33.5684588,29.715942 Z"></path>
        </g>
    </g>
</svg>